<svg xmlns="http://www.w3.org/2000/svg" width="88" height="36" viewBox="0 0 88 36" fill="none">
  <path d="M5.59107 6.43616L5.84372 6.48157L9.2889 1.66795C9.90122 0.805133 10.5673 0.316052 11.2871 0.201161C12.0069 0.0889944 12.6574 0.260196 13.2394 0.714311C13.622 1.00177 13.8747 1.38776 13.9973 1.8723C14.12 2.35684 14.0814 2.87136 13.8825 3.41629C13.6836 3.96123 13.2853 4.47574 12.6881 4.96028L8.85251 8.02556V8.50238C9.34264 8.50238 9.91684 8.56278 10.5751 8.68402C11.2334 8.80527 11.8305 9.07774 12.3666 9.50143C12.7952 9.81931 13.1672 10.1826 13.4828 10.5913C13.7952 11 14.0432 11.5027 14.227 12.099C14.4107 12.6984 14.5026 13.4522 14.5026 14.3605C14.5026 15.102 14.3005 15.6956 13.8962 16.1406C13.4888 16.5888 12.887 16.8127 12.091 16.8127C11.2949 16.8127 10.6867 16.5888 10.2673 16.1406C9.84472 15.6956 9.63341 15.102 9.63341 14.3605C9.63341 13.5281 9.5002 12.8651 9.23377 12.3714C8.96413 11.881 8.60767 11.5222 8.16347 11.2952C7.71927 11.0681 7.23695 10.9546 6.7165 10.9546H5.59107V14.5194C5.59107 15.1701 5.36599 15.7078 4.91582 16.1315C4.46243 16.5552 3.88364 16.7673 3.17945 16.7673C2.47525 16.7673 1.89784 16.5552 1.44767 16.1315C0.994285 15.7078 0.767822 15.1701 0.767822 14.5194V2.50806C0.767822 1.84188 0.989692 1.28195 1.43389 0.82784C1.87809 0.373725 2.45963 0.146667 3.17945 0.146667C3.94519 0.146667 4.53914 0.370546 4.96175 0.818757C5.38115 1.26379 5.59107 1.81191 5.59107 2.46265V6.43616ZM23.483 11.4768H20.3135V14.315C20.3135 15.102 20.1035 15.7001 19.6841 16.1088C19.2615 16.5175 18.7057 16.7219 18.0167 16.7219H17.9937C17.2436 16.7219 16.6492 16.5175 16.2114 16.1088C15.7764 15.7001 15.5591 15.102 15.5591 14.315V11.1135C15.5591 9.50915 15.804 8.29031 16.2941 7.45792C16.7842 6.62552 17.4044 6.02745 18.1545 5.66416L18.0396 5.23275H17.6492C16.945 5.23275 16.3892 5.00887 15.9817 4.56066C15.5775 4.11563 15.3676 3.50712 15.3524 2.73512C15.3372 1.97811 15.5407 1.36506 15.9634 0.895958C16.3827 0.426857 16.945 0.192078 17.6492 0.192078H23.6897C25.2364 0.192078 26.4964 0.649372 27.4702 1.56351C28.4409 2.48082 28.9264 3.92354 28.9264 5.89122C28.9264 7.31396 28.6738 8.43426 28.1685 9.25167C27.6632 10.0691 26.9971 10.6444 26.1703 10.9773C25.3434 11.3102 24.4477 11.4768 23.483 11.4768ZM20.0149 5.32358V7.09462C20.0149 7.42749 20.0806 7.64728 20.2124 7.75309C20.341 7.8589 20.5739 7.91203 20.9106 7.91203H23.0466C23.6897 7.91203 24.1569 7.76354 24.4477 7.467C24.7384 7.17319 24.8841 6.75404 24.8841 6.2091C24.8841 5.66416 24.7384 5.24774 24.4477 4.96028C24.1569 4.67283 23.6897 4.52887 23.0466 4.52887H20.9106C20.5739 4.52887 20.341 4.57429 20.2124 4.66511C20.0806 4.75593 20.0149 4.97527 20.0149 5.32358ZM32.3946 16.7673C31.6904 16.7673 31.1162 16.5552 30.672 16.1315C30.2278 15.7078 30.0059 15.1701 30.0059 14.5194V2.50806C30.0059 1.84188 30.225 1.28195 30.6628 0.82784C31.0978 0.373725 31.6747 0.146667 32.3946 0.146667C33.1603 0.146667 33.7621 0.370546 34.1998 0.818757C34.6348 1.26379 34.8521 1.81191 34.8521 2.46265V14.5194C34.8521 15.1701 34.6192 15.7078 34.1539 16.1315C33.6853 16.5552 33.0987 16.7673 32.3946 16.7673Z" fill="#010C80"/>
  <path d="M2.81192 24.1693C2.04617 24.1693 1.42145 23.95 0.937743 23.5109C0.456796 23.0717 0.216553 22.4664 0.216553 21.6944C0.216553 20.9374 0.435666 20.3289 0.873433 19.8689C1.30844 19.4057 1.9543 19.1741 2.81192 19.1741H12.7111C13.5687 19.1741 14.2164 19.4057 14.6541 19.8689C15.0892 20.3289 15.3064 20.9374 15.3064 21.6944C15.3064 22.4664 15.0662 23.0717 14.5852 23.5109C14.1015 23.95 13.4768 24.1693 12.7111 24.1693C12.1906 24.1693 11.774 24.1117 11.4616 23.9968C11.146 23.8846 10.8888 23.7484 10.6899 23.5881C10.491 23.4305 10.2994 23.2943 10.1157 23.1794C9.93195 23.0672 9.70227 23.0113 9.42666 23.0113L9.21995 23.42C9.28104 23.5563 9.38853 23.7484 9.5415 23.9968C9.69447 24.2479 9.84008 24.6039 9.97789 25.0639C10.1157 25.5271 10.1846 26.1525 10.1846 26.9394V33.5014C10.1846 34.1222 9.9517 34.6367 9.48638 35.0454C9.01783 35.4541 8.44685 35.6584 7.77297 35.6584C7.08394 35.6584 6.50653 35.4541 6.0412 35.0454C5.57266 34.6367 5.33838 34.1222 5.33838 33.5014V26.9394C5.33838 26.1525 5.40729 25.5271 5.54509 25.0639C5.6829 24.6039 5.83311 24.2479 5.99526 23.9968C6.15466 23.7484 6.26491 23.5563 6.326 23.42L6.09632 23.0113C5.82071 23.0113 5.59103 23.0672 5.40729 23.1794C5.22354 23.2943 5.03199 23.4305 4.83309 23.5881C4.63419 23.7484 4.38154 23.8846 4.07515 23.9968C3.76876 24.1117 3.34799 24.1693 2.81192 24.1693ZM18.4071 35.6584C17.6873 35.6584 17.1287 35.4541 16.7304 35.0454C16.3322 34.6367 16.1333 34.1222 16.1333 33.5014V26.0539C16.1333 25.4032 16.3322 24.861 16.7304 24.4282C17.1287 23.9981 17.6873 23.7833 18.4071 23.7833C19.1269 23.7833 19.6781 23.9981 20.0608 24.4282C20.4434 24.861 20.635 25.3877 20.635 26.0085V26.4853H21.0714C21.1325 25.6829 21.4388 25.0244 21.9901 24.5099C22.5413 23.9954 23.1922 23.7379 23.9423 23.7379C24.6925 23.7379 25.2869 23.965 25.7246 24.4191C26.1597 24.8732 26.3769 25.4785 26.3769 26.2356C26.3769 26.9472 26.1702 27.5375 25.7568 28.0066C25.3434 28.4757 24.8151 28.7105 24.172 28.7105C23.636 28.7105 23.1876 28.5847 22.8261 28.3336C22.4678 28.0852 22.2046 27.7945 22.036 27.4617C21.5459 27.4013 21.1908 27.4494 20.9703 27.607C20.7466 27.7673 20.635 28.0824 20.635 28.5515V33.5014C20.635 34.1222 20.4434 34.6367 20.0608 35.0454C19.6781 35.4541 19.1269 35.6584 18.4071 35.6584ZM30.603 35.6584C29.4698 35.6584 28.5864 35.3555 27.9525 34.7502C27.3154 34.1449 26.9971 33.297 26.9971 32.2072C26.9971 31.1173 27.3646 30.3258 28.0995 29.8321C28.8345 29.3417 29.7762 29.0965 30.9246 29.0965C31.5984 29.0965 32.2108 29.1419 32.762 29.2327C33.3132 29.3235 33.8107 29.4521 34.2549 29.6187H34.3238V29.2781C34.3238 28.9298 34.1938 28.6528 33.9334 28.4471C33.6729 28.2441 33.344 28.1506 32.9457 28.1655C32.5631 28.1655 32.2383 28.1883 31.9719 28.2337C31.7023 28.2791 31.3688 28.3549 30.9705 28.4607C30.2355 28.6424 29.6002 28.6274 29.0642 28.4153C28.5281 28.2032 28.1606 27.7873 27.9617 27.1665C27.778 26.5157 27.8207 25.9708 28.0903 25.5317C28.3568 25.0925 28.7656 24.752 29.3168 24.5099C29.7913 24.2829 30.3242 24.0935 30.9154 23.9423C31.5034 23.7911 32.1419 23.7152 32.8309 23.7152C34.8369 23.7152 36.3115 24.1952 37.2545 25.1548C38.1948 26.1175 38.6647 27.7264 38.6647 29.982V33.5014C38.6647 34.1222 38.4732 34.6367 38.0905 35.0454C37.7079 35.4541 37.1796 35.6584 36.5058 35.6584C35.7708 35.6584 35.2241 35.4541 34.8659 35.0454C34.5043 34.6367 34.3238 34.1372 34.3238 33.5468V33.0246H33.8645C33.8645 33.4183 33.791 33.8193 33.644 34.228C33.5002 34.6367 33.203 34.9773 32.7528 35.2497C32.2994 35.5222 31.5828 35.6584 30.603 35.6584ZM30.8327 30.6859C30.8327 30.9434 30.9278 31.125 31.1175 31.2308C31.3104 31.3366 31.7284 31.3898 32.3715 31.3898C32.9535 31.3898 33.3592 31.3366 33.5888 31.2308C33.8185 31.125 33.9334 30.9434 33.9334 30.6859C33.9334 30.4438 33.8185 30.2726 33.5888 30.1727C33.3592 30.076 32.9535 30.0274 32.3715 30.0274C31.7284 30.0274 31.3104 30.076 31.1175 30.1727C30.9278 30.2726 30.8327 30.4438 30.8327 30.6859ZM45.7618 35.7266C44.5675 35.7266 43.5109 35.48 42.5922 34.9863C41.6735 34.4959 40.9537 33.7966 40.4333 32.8883C39.9128 31.9801 39.6524 30.9129 39.6524 29.6868C39.6524 28.4607 39.9128 27.3935 40.4333 26.4853C40.9537 25.5771 41.6781 24.8732 42.606 24.3737C43.5307 23.8742 44.5982 23.6244 45.8077 23.6244C46.7572 23.6244 47.596 23.7229 48.325 23.9196C49.0508 24.1162 49.625 24.4114 50.0476 24.8051C50.467 25.1988 50.6769 25.6906 50.6769 26.281C50.6769 26.9926 50.4932 27.5479 50.1257 27.9476C49.7582 28.3504 49.2299 28.5515 48.5409 28.5515C48.0816 28.5515 47.6268 28.4834 47.1766 28.3472C46.7232 28.211 46.1444 28.1428 45.4403 28.1428C44.8582 28.1428 44.3686 28.2337 43.9703 28.4153C43.572 28.597 43.3731 28.9298 43.3731 29.4144C43.3731 29.9139 43.572 30.2726 43.9703 30.4906C44.3686 30.7118 44.8582 30.8221 45.4403 30.8221C45.9148 30.8221 46.313 30.7767 46.6346 30.6859C46.9561 30.5951 47.2625 30.5042 47.5533 30.4134C47.8441 30.3226 48.1734 30.2772 48.5409 30.2772C49.3218 30.2772 49.9006 30.4997 50.2773 30.9447C50.6507 31.3929 50.8377 31.9651 50.8377 32.6613C50.8377 33.2516 50.6158 33.777 50.1716 34.2371C49.7274 34.7003 49.1229 35.0635 48.3572 35.3269C47.5914 35.5935 46.7264 35.7266 45.7618 35.7266ZM53.9613 35.6584C53.2874 35.6584 52.7518 35.4573 52.3536 35.0545C51.9553 34.6548 51.7564 34.1599 51.7564 33.5695V20.4229C51.7564 19.7871 51.9526 19.2499 52.3444 18.8108C52.7335 18.3717 53.2874 18.1523 54.0073 18.1523C54.7115 18.1523 55.2443 18.3717 55.6058 18.8108C55.9641 19.2499 56.1433 19.7948 56.1433 20.4456V27.3254L56.2122 27.3481C56.2889 26.7124 56.4878 26.1252 56.8093 25.5862C57.1309 25.0503 57.5824 24.6157 58.1644 24.2829C58.7464 23.95 59.4584 23.7833 60.3004 23.7833C61.4337 23.7833 62.3446 24.0935 63.0336 24.7143C63.7227 25.335 64.0672 26.1824 64.0672 27.2573C64.0672 27.9989 63.9188 28.5847 63.6216 29.0147C63.3216 29.4475 62.9188 29.7472 62.4135 29.9139C61.9082 30.0805 61.3492 30.1559 60.7368 30.1409V30.5269C62.0998 30.5269 63.069 30.7949 63.6446 31.3307C64.2174 31.8698 64.5036 32.5478 64.5036 33.3652C64.5036 34.1222 64.2739 34.7048 63.8145 35.1135C63.3552 35.5222 62.8039 35.7188 62.1608 35.7038C61.4567 35.6889 60.8746 35.4845 60.4153 35.0908C59.9559 34.6971 59.5733 34.1676 59.2669 33.5014L58.2793 31.4352C58.0804 31.0265 57.8245 30.7313 57.5122 30.5496C57.1966 30.368 56.7404 30.2999 56.1433 30.3453V33.5695C56.1433 34.1599 55.949 34.6548 55.5599 35.0545C55.1681 35.4573 54.6352 35.6584 53.9613 35.6584ZM56.6256 28.8013C56.6256 29.0134 56.7372 29.1678 56.9609 29.2645C57.1814 29.3644 57.644 29.4144 58.3482 29.4144C59.0372 29.4144 59.4966 29.3689 59.7263 29.2781C59.9559 29.1873 60.0708 29.0284 60.0708 28.8013C60.0708 28.5892 59.9559 28.4303 59.7263 28.3245C59.4966 28.2187 59.045 28.1655 58.3712 28.1655C57.6513 28.1655 57.1814 28.2187 56.9609 28.3245C56.7372 28.4303 56.6256 28.5892 56.6256 28.8013ZM65.3534 29.7549C65.3534 28.5593 65.5955 27.5071 66.0792 26.5988C66.5601 25.6906 67.2491 24.979 68.1463 24.4645C69.0406 23.95 70.1077 23.6925 71.348 23.6925C72.3126 23.6925 73.1822 23.8664 73.9571 24.2147C74.7289 24.5631 75.3366 25.0276 75.7808 25.6089C76.225 26.1933 76.4468 26.8336 76.4468 27.5298C76.4468 28.2564 76.2323 28.7709 75.8037 29.0738C75.3752 29.3767 74.7394 29.5279 73.8974 29.5279H69.0742C69.0742 29.9216 69.2317 30.2468 69.5473 30.5042C69.8597 30.7617 70.3911 30.8902 71.1413 30.8902C71.5239 30.8902 71.8808 30.8525 72.2116 30.7767C72.5391 30.7009 72.8763 30.6282 73.2222 30.5587C73.5653 30.492 73.9512 30.4588 74.3797 30.4588C74.9921 30.4588 75.4974 30.6736 75.8956 31.1037C76.2939 31.5364 76.4928 32.1313 76.4928 32.8883C76.4928 33.7816 76.0302 34.4777 75.1055 34.9773C74.1776 35.4768 72.9635 35.7266 71.4628 35.7266C70.4063 35.7266 69.4155 35.5222 68.4908 35.1135C67.5629 34.7048 66.8082 34.0568 66.2262 33.1699C65.6441 32.2857 65.3534 31.1477 65.3534 29.7549ZM69.1431 28.7786H72.795C73.0246 28.7786 73.1013 28.6728 73.0246 28.4607C72.9635 28.2486 72.7798 28.0293 72.4734 27.8023C72.167 27.5752 71.7233 27.4617 71.1413 27.4617C70.4674 27.4617 69.9667 27.6056 69.6392 27.8931C69.3084 28.1805 69.1431 28.4757 69.1431 28.7786ZM79.8002 35.6584C79.0803 35.6584 78.5218 35.4541 78.1235 35.0454C77.7252 34.6367 77.5263 34.1222 77.5263 33.5014V26.0539C77.5263 25.4032 77.7252 24.861 78.1235 24.4282C78.5218 23.9981 79.0803 23.7833 79.8002 23.7833C80.52 23.7833 81.0712 23.9981 81.4538 24.4282C81.8365 24.861 82.028 25.3877 82.028 26.0085V26.4853H82.4644C82.5255 25.6829 82.8319 25.0244 83.3831 24.5099C83.9344 23.9954 84.5853 23.7379 85.3354 23.7379C86.0855 23.7379 86.6799 23.965 87.1177 24.4191C87.5527 24.8732 87.77 25.4785 87.77 26.2356C87.77 26.9472 87.5633 27.5375 87.1499 28.0066C86.7364 28.4757 86.2082 28.7105 85.5651 28.7105C85.029 28.7105 84.5821 28.5847 84.2238 28.3336C83.8623 28.0852 83.5977 27.7945 83.4291 27.4617C82.9389 27.4013 82.5839 27.4494 82.3634 27.607C82.1397 27.7673 82.028 28.0824 82.028 28.5515V33.5014C82.028 34.1222 81.8365 34.6367 81.4538 35.0454C81.0712 35.4541 80.52 35.6584 79.8002 35.6584Z" fill="#1814F3"/>
</svg>