<svg xmlns="http://www.w3.org/2000/svg" version="1.1" xmlns:xlink="http://www.w3.org/1999/xlink" xmlns:svgjs="http://svgjs.dev/svgjs" width="1500" height="454" viewBox="0 0 1500 454"><g transform="matrix(1,0,0,1,-0.9090909090909918,-0.7576483080144385)"><svg viewBox="0 0 396 120" data-background-color="#ffffff" preserveAspectRatio="xMidYMid meet" height="454" width="1500" xmlns="http://www.w3.org/2000/svg" xmlns:xlink="http://www.w3.org/1999/xlink"><g id="tight-bounds" transform="matrix(1,0,0,1,0.2400000000000091,0.20025946467342237)"><svg viewBox="0 0 395.52 119.59948107065316" height="119.59948107065316" width="395.52"><g><svg viewBox="0 0 572.3355957375866 173.06593913955928" height="119.59948107065316" width="395.52"><g transform="matrix(1,0,0,1,176.8155957375866,0)"><svg viewBox="0 0 395.52000000000004 173.06593913955928" height="173.06593913955928" width="395.52000000000004"><g id="textblocktransform"><svg viewBox="0 0 395.52000000000004 173.06593913955928" height="173.06593913955928" width="395.52000000000004" id="textblock"><g><svg viewBox="0 0 395.52000000000004 173.06593913955928" height="173.06593913955928" width="395.52000000000004"><g transform="matrix(1,0,0,1,0,0)"><svg width="395.52000000000004" viewBox="0.4499999999999995 -36.5 190.59999999999997 78.35" height="173.06593913955928" data-palette-color="#010c80"><svg></svg><svg></svg><g class="wordmark-text-0" data-fill-palette-color="primary" id="text-0"><path d="M12.15-22.65l0.55 0.1 7.5-10.6c1.333-1.9 2.783-2.977 4.35-3.23 1.567-0.247 2.983 0.13 4.25 1.13v0c0.833 0.633 1.383 1.483 1.65 2.55 0.267 1.067 0.183 2.2-0.25 3.4-0.433 1.2-1.3 2.333-2.6 3.4v0l-8.35 6.75v1.05c1.067 0 2.317 0.133 3.75 0.4 1.433 0.267 2.733 0.867 3.9 1.8v0c0.933 0.7 1.743 1.5 2.43 2.4 0.68 0.9 1.22 2.007 1.62 3.32 0.4 1.32 0.6 2.98 0.6 4.98v0c0 1.633-0.44 2.94-1.32 3.92-0.887 0.987-2.197 1.48-3.93 1.48v0c-1.733 0-3.057-0.493-3.97-1.48-0.92-0.98-1.38-2.287-1.38-3.92v0c0-1.833-0.29-3.293-0.87-4.38-0.587-1.08-1.363-1.87-2.33-2.37-0.967-0.5-2.017-0.75-3.15-0.75v0h-2.45v7.85c0 1.433-0.49 2.617-1.47 3.55-0.987 0.933-2.247 1.4-3.78 1.4v0c-1.533 0-2.79-0.467-3.77-1.4-0.987-0.933-1.48-2.117-1.48-3.55v0-26.45c0-1.467 0.483-2.7 1.45-3.7 0.967-1 2.233-1.5 3.8-1.5v0c1.667 0 2.96 0.493 3.88 1.48 0.913 0.98 1.37 2.187 1.37 3.62v0zM51.1-11.55h-6.9v6.25c0 1.733-0.457 3.05-1.37 3.95-0.92 0.9-2.13 1.35-3.63 1.35v0h-0.05c-1.633 0-2.927-0.45-3.88-1.35-0.947-0.9-1.42-2.217-1.42-3.95v0-7.05c0-3.533 0.533-6.217 1.6-8.05 1.067-1.833 2.417-3.15 4.05-3.95v0l-0.25-0.95h-0.85c-1.533 0-2.743-0.493-3.63-1.48-0.88-0.98-1.337-2.32-1.37-4.02v0c-0.033-1.667 0.41-3.017 1.33-4.05 0.913-1.033 2.137-1.55 3.67-1.55v0h13.15c3.367 0 6.11 1.007 8.23 3.02 2.113 2.02 3.17 5.197 3.17 9.53v0c0 3.133-0.55 5.6-1.65 7.4-1.1 1.8-2.55 3.067-4.35 3.8-1.8 0.733-3.75 1.1-5.85 1.1zM43.55-25.1v3.9c0 0.733 0.143 1.217 0.43 1.45 0.28 0.233 0.787 0.35 1.52 0.35v0h4.65c1.4 0 2.417-0.327 3.05-0.98 0.633-0.647 0.95-1.57 0.95-2.77v0c0-1.2-0.317-2.117-0.95-2.75-0.633-0.633-1.65-0.95-3.05-0.95v0h-4.65c-0.733 0-1.24 0.1-1.52 0.3-0.287 0.2-0.43 0.683-0.43 1.45zM70.5 0.1v0c-1.533 0-2.783-0.467-3.75-1.4-0.967-0.933-1.45-2.117-1.45-3.55v0-26.45c0-1.467 0.477-2.7 1.43-3.7 0.947-1 2.203-1.5 3.77-1.5v0c1.667 0 2.977 0.493 3.93 1.48 0.947 0.98 1.42 2.187 1.42 3.62v0 26.55c0 1.433-0.507 2.617-1.52 3.55-1.02 0.933-2.297 1.4-3.83 1.4z" fill="#010c80" fill-rule="nonzero" stroke="none" stroke-width="1" stroke-linecap="butt" stroke-linejoin="miter" stroke-miterlimit="10" stroke-dasharray="" stroke-dashoffset="0" font-family="none" font-weight="none" font-size="none" text-anchor="none" style="mix-blend-mode: normal" data-fill-palette-color="primary" opacity="1"></path><path d="M6.1 16.4v0c-1.667 0-3.027-0.483-4.08-1.45-1.047-0.967-1.57-2.3-1.57-4v0c0-1.667 0.477-3.007 1.43-4.02 0.947-1.02 2.353-1.53 4.22-1.53v0h21.55c1.867 0 3.277 0.51 4.23 1.53 0.947 1.013 1.42 2.353 1.42 4.02v0c0 1.7-0.523 3.033-1.57 4-1.053 0.967-2.413 1.45-4.08 1.45v0c-1.133 0-2.04-0.127-2.72-0.38-0.687-0.247-1.247-0.547-1.68-0.9-0.433-0.347-0.85-0.647-1.25-0.9-0.4-0.247-0.9-0.37-1.5-0.37v0l-0.45 0.9c0.133 0.3 0.367 0.723 0.7 1.27 0.333 0.553 0.65 1.337 0.95 2.35 0.3 1.02 0.45 2.397 0.45 4.13v0 14.45c0 1.367-0.507 2.5-1.52 3.4-1.02 0.9-2.263 1.35-3.73 1.35v0c-1.5 0-2.757-0.45-3.77-1.35-1.02-0.9-1.53-2.033-1.53-3.4v0-14.45c0-1.733 0.15-3.11 0.45-4.13 0.3-1.013 0.627-1.797 0.98-2.35 0.347-0.547 0.587-0.97 0.72-1.27v0l-0.5-0.9c-0.6 0-1.1 0.123-1.5 0.37-0.4 0.253-0.817 0.553-1.25 0.9-0.433 0.353-0.983 0.653-1.65 0.9-0.667 0.253-1.583 0.38-2.75 0.38zM40.05 41.7v0c-1.567 0-2.783-0.45-3.65-1.35-0.867-0.9-1.3-2.033-1.3-3.4v0-16.4c0-1.433 0.433-2.627 1.3-3.58 0.867-0.947 2.083-1.42 3.65-1.42v0c1.567 0 2.767 0.473 3.6 1.42 0.833 0.953 1.25 2.113 1.25 3.48v0 1.05h0.95c0.133-1.767 0.8-3.217 2-4.35 1.2-1.133 2.617-1.7 4.25-1.7v0c1.633 0 2.927 0.5 3.88 1.5 0.947 1 1.42 2.333 1.42 4v0c0 1.567-0.45 2.867-1.35 3.9-0.9 1.033-2.05 1.55-3.45 1.55v0c-1.167 0-2.143-0.277-2.93-0.83-0.78-0.547-1.353-1.187-1.72-1.92v0c-1.067-0.133-1.84-0.027-2.32 0.32-0.487 0.353-0.73 1.047-0.73 2.08v0 10.9c0 1.367-0.417 2.5-1.25 3.4-0.833 0.9-2.033 1.35-3.6 1.35zM66.6 41.7v0c-2.467 0-4.39-0.667-5.77-2-1.387-1.333-2.08-3.2-2.08-5.6v0c0-2.4 0.8-4.143 2.4-5.23 1.6-1.08 3.65-1.62 6.15-1.62v0c1.467 0 2.8 0.1 4 0.3 1.2 0.2 2.283 0.483 3.25 0.85v0h0.15v-0.75c0-0.767-0.283-1.377-0.85-1.83-0.567-0.447-1.283-0.653-2.15-0.62v0c-0.833 0-1.54 0.05-2.12 0.15-0.587 0.1-1.313 0.267-2.18 0.5v0c-1.6 0.4-2.983 0.367-4.15-0.1-1.167-0.467-1.967-1.383-2.4-2.75v0c-0.4-1.433-0.307-2.633 0.28-3.6 0.58-0.967 1.47-1.717 2.67-2.25v0c1.033-0.5 2.193-0.917 3.48-1.25 1.28-0.333 2.67-0.5 4.17-0.5v0c4.367 0 7.577 1.057 9.63 3.17 2.047 2.12 3.07 5.663 3.07 10.63v0 7.75c0 1.367-0.417 2.5-1.25 3.4-0.833 0.9-1.983 1.35-3.45 1.35v0c-1.6 0-2.79-0.45-3.57-1.35-0.787-0.9-1.18-2-1.18-3.3v0-1.15h-1c0 0.867-0.16 1.75-0.48 2.65-0.313 0.9-0.96 1.65-1.94 2.25-0.987 0.6-2.547 0.9-4.68 0.9zM67.1 30.75v0c0 0.567 0.207 0.967 0.62 1.2 0.42 0.233 1.33 0.35 2.73 0.35v0c1.267 0 2.15-0.117 2.65-0.35 0.5-0.233 0.75-0.633 0.75-1.2v0c0-0.533-0.25-0.91-0.75-1.13-0.5-0.213-1.383-0.32-2.65-0.32v0c-1.4 0-2.31 0.107-2.73 0.32-0.413 0.22-0.62 0.597-0.62 1.13zM99.6 41.85v0c-2.6 0-4.9-0.543-6.9-1.63-2-1.08-3.567-2.62-4.7-4.62-1.133-2-1.7-4.35-1.7-7.05v0c0-2.7 0.567-5.05 1.7-7.05 1.133-2 2.71-3.55 4.73-4.65 2.013-1.1 4.337-1.65 6.97-1.65v0c2.067 0 3.893 0.217 5.48 0.65 1.58 0.433 2.83 1.083 3.75 1.95 0.913 0.867 1.37 1.95 1.37 3.25v0c0 1.567-0.4 2.79-1.2 3.67-0.8 0.887-1.95 1.33-3.45 1.33v0c-1 0-1.99-0.15-2.97-0.45-0.987-0.3-2.247-0.45-3.78-0.45v0c-1.267 0-2.333 0.2-3.2 0.6-0.867 0.4-1.3 1.133-1.3 2.2v0c0 1.1 0.433 1.89 1.3 2.37 0.867 0.487 1.933 0.73 3.2 0.73v0c1.033 0 1.9-0.1 2.6-0.3 0.7-0.2 1.367-0.4 2-0.6 0.633-0.2 1.35-0.3 2.15-0.3v0c1.7 0 2.96 0.49 3.78 1.47 0.813 0.987 1.22 2.247 1.22 3.78v0c0 1.3-0.483 2.457-1.45 3.47-0.967 1.02-2.283 1.82-3.95 2.4-1.667 0.587-3.55 0.88-5.65 0.88zM117.45 41.7v0c-1.467 0-2.633-0.443-3.5-1.33-0.867-0.88-1.3-1.97-1.3-3.27v0-28.95c0-1.4 0.427-2.583 1.28-3.55 0.847-0.967 2.053-1.45 3.62-1.45v0c1.533 0 2.693 0.483 3.48 1.45 0.78 0.967 1.17 2.167 1.17 3.6v0 15.15l0.15 0.05c0.167-1.4 0.6-2.693 1.3-3.88 0.7-1.18 1.683-2.137 2.95-2.87 1.267-0.733 2.817-1.1 4.65-1.1v0c2.467 0 4.45 0.683 5.95 2.05 1.5 1.367 2.25 3.233 2.25 5.6v0c0 1.633-0.323 2.923-0.97 3.87-0.653 0.953-1.53 1.613-2.63 1.98-1.1 0.367-2.317 0.533-3.65 0.5v0 0.85c2.967 0 5.077 0.59 6.33 1.77 1.247 1.187 1.87 2.68 1.87 4.48v0c0 1.667-0.5 2.95-1.5 3.85-1 0.9-2.2 1.333-3.6 1.3v0c-1.533-0.033-2.8-0.483-3.8-1.35-1-0.867-1.833-2.033-2.5-3.5v0l-2.15-4.55c-0.433-0.9-0.99-1.55-1.67-1.95-0.687-0.4-1.68-0.55-2.98-0.45v0 7.1c0 1.3-0.423 2.39-1.27 3.27-0.853 0.887-2.013 1.33-3.48 1.33zM123.25 26.6v0c0 0.467 0.243 0.807 0.73 1.02 0.48 0.22 1.487 0.33 3.02 0.33v0c1.5 0 2.5-0.1 3-0.3 0.5-0.2 0.75-0.55 0.75-1.05v0c0-0.467-0.25-0.817-0.75-1.05-0.5-0.233-1.483-0.35-2.95-0.35v0c-1.567 0-2.59 0.117-3.07 0.35-0.487 0.233-0.73 0.583-0.73 1.05zM142.25 28.7v0c0-2.633 0.527-4.95 1.58-6.95 1.047-2 2.547-3.567 4.5-4.7 1.947-1.133 4.27-1.7 6.97-1.7v0c2.1 0 3.993 0.383 5.68 1.15 1.68 0.767 3.003 1.79 3.97 3.07 0.967 1.287 1.45 2.697 1.45 4.23v0c0 1.6-0.467 2.733-1.4 3.4-0.933 0.667-2.317 1-4.15 1v0h-10.5c0 0.867 0.343 1.583 1.03 2.15 0.68 0.567 1.837 0.85 3.47 0.85v0c0.833 0 1.61-0.083 2.33-0.25 0.713-0.167 1.447-0.327 2.2-0.48 0.747-0.147 1.587-0.22 2.52-0.22v0c1.333 0 2.433 0.473 3.3 1.42 0.867 0.953 1.3 2.263 1.3 3.93v0c0 1.967-1.007 3.5-3.02 4.6-2.02 1.1-4.663 1.65-7.93 1.65v0c-2.3 0-4.457-0.45-6.47-1.35-2.02-0.9-3.663-2.327-4.93-4.28-1.267-1.947-1.9-4.453-1.9-7.52zM150.5 26.55h7.95c0.5 0 0.667-0.233 0.5-0.7v0c-0.133-0.467-0.533-0.95-1.2-1.45-0.667-0.5-1.633-0.75-2.9-0.75v0c-1.467 0-2.557 0.317-3.27 0.95-0.72 0.633-1.08 1.283-1.08 1.95zM173.7 41.7v0c-1.567 0-2.783-0.45-3.65-1.35-0.867-0.9-1.3-2.033-1.3-3.4v0-16.4c0-1.433 0.433-2.627 1.3-3.58 0.867-0.947 2.083-1.42 3.65-1.42v0c1.567 0 2.767 0.473 3.6 1.42 0.833 0.953 1.25 2.113 1.25 3.48v0 1.05h0.95c0.133-1.767 0.8-3.217 2-4.35 1.2-1.133 2.617-1.7 4.25-1.7v0c1.633 0 2.927 0.5 3.88 1.5 0.947 1 1.42 2.333 1.42 4v0c0 1.567-0.45 2.867-1.35 3.9-0.9 1.033-2.05 1.55-3.45 1.55v0c-1.167 0-2.14-0.277-2.92-0.83-0.787-0.547-1.363-1.187-1.73-1.92v0c-1.067-0.133-1.84-0.027-2.32 0.32-0.487 0.353-0.73 1.047-0.73 2.08v0 10.9c0 1.367-0.417 2.5-1.25 3.4-0.833 0.9-2.033 1.35-3.6 1.35z" fill="#1814f3" fill-rule="nonzero" stroke="none" stroke-width="1" stroke-linecap="butt" stroke-linejoin="miter" stroke-miterlimit="10" stroke-dasharray="" stroke-dashoffset="0" font-family="none" font-weight="none" font-size="none" text-anchor="none" style="mix-blend-mode: normal" data-fill-palette-color="secondary" opacity="1"></path></g></svg></g></svg></g></svg></g></svg></g><g transform="matrix(1,0,0,1,0,7.604517365792219)"><svg viewBox="0 0 157.85690440797484 157.85690440797484" height="157.85690440797484" width="157.85690440797484"><g data-palette-color="#1814f3"><rect width="43.14755387151312" height="157.85690440797484" fill="#1814f3" stroke="transparent" data-fill-palette-color="accent" x="0" fill-opacity="0.5"></rect><rect width="43.14755387151312" height="157.85690440797484" fill="#1814f3" stroke="transparent" data-fill-palette-color="accent" x="52.61896813599161" fill-opacity="0.75"></rect><rect width="43.14755387151312" height="157.85690440797484" fill="#1814f3" stroke="transparent" data-fill-palette-color="accent" x="105.23793627198322" fill-opacity="1"></rect></g></svg></g></svg></g><defs></defs></svg><rect width="395.52" height="119.59948107065316" fill="none" stroke="none" visibility="hidden"></rect></g></svg></g></svg>